<?xml version="1.0" encoding="UTF-8" standalone="no" ?>
<!DOCTYPE svg PUBLIC "-//W3C//DTD SVG 1.1//EN" "http://www.w3.org/Graphics/SVG/1.1/DTD/svg11.dtd">
<svg xmlns="http://www.w3.org/2000/svg" xmlns:xlink="http://www.w3.org/1999/xlink" version="1.1" width="512" height="512" viewBox="0 0 512 512" xml:space="preserve">
<desc>Created with Fabric.js 3.6.6</desc>
<defs>
</defs>
<g transform="matrix(1.27 0 0 1.27 256.3 256.3)"  >
<g style=""   >
		<g transform="matrix(0.13 0 0 -0.13 -103.15 -103.69)"  >
<path style="stroke: none; stroke-width: 1; stroke-dasharray: none; stroke-linecap: butt; stroke-dashoffset: 0; stroke-linejoin: miter; stroke-miterlimit: 4; fill: rgb(0,0,0); fill-rule: nonzero; opacity: 1;"  transform=" translate(-726.34, -2277.66)" d="M 1280 2983 c -603 -92 -1091 -538 -1236 -1127 c -25 -101 -44 -315 -26 -286 c 10 16 21 61 47 200 c 56 289 192 546 400 755 c 231 232 489 361 835 421 c 52 9 108 22 125 29 c 28 13 26 13 -45 13 c -41 0 -86 -2 -100 -5 z" stroke-linecap="round" />
</g>
		<g transform="matrix(0.13 0 0 -0.13 103.31 -103.36)"  >
<path style="stroke: none; stroke-width: 1; stroke-dasharray: none; stroke-linecap: butt; stroke-dashoffset: 0; stroke-linejoin: miter; stroke-miterlimit: 4; fill: rgb(0,0,0); fill-rule: nonzero; opacity: 1;"  transform=" translate(-2274.83, -2275.21)" d="M 1576 2976 c 17 -8 73 -22 125 -31 c 249 -42 431 -113 629 -246 c 111 -75 264 -222 347 -336 c 117 -159 215 -381 253 -576 c 11 -56 25 -128 31 -160 c 20 -97 33 -82 26 29 c -20 314 -183 659 -428 903 c -248 248 -598 412 -909 426 c -97 5 -103 4 -74 -9 z" stroke-linecap="round" />
</g>
		<g transform="matrix(0.13 0 0 -0.13 19.74 -5.81)"  >
<path style="stroke: none; stroke-width: 1; stroke-dasharray: none; stroke-linecap: butt; stroke-dashoffset: 0; stroke-linejoin: miter; stroke-miterlimit: 4; fill: rgb(0,0,0); fill-rule: nonzero; opacity: 1;"  transform=" translate(-1648.05, -1543.56)" d="M 776 2468 c 10 -13 40 -45 65 -73 c 108 -117 213 -264 268 -372 l 31 -62 l -28 2 c -24 2 -34 15 -87 117 c -71 135 -81 151 -156 250 c -60 79 -129 151 -129 134 c 0 -5 36 -61 81 -124 c 107 -153 201 -321 187 -335 c -3 -3 -31 -10 -64 -16 c -104 -19 -177 -68 -216 -144 c -17 -33 -20 -51 -15 -120 c 6 -89 29 -153 97 -275 c 143 -253 303 -380 409 -325 c 78 40 111 125 111 288 l 0 109 l 52 -57 c 92 -101 166 -150 528 -350 c 314 -174 437 -254 538 -349 c 53 -49 65 -77 51 -112 c -13 -36 -2 -44 22 -15 c 44 54 11 115 -114 213 c -126 99 -246 171 -612 373 c -259 142 -397 248 -426 323 c -15 40 -2 88 29 110 c 57 40 184 50 222 16 c 25 -21 112 -55 134 -52 c 30 5 -149 89 -292 137 c -274 93 -509 115 -578 53 c -11 -9 -26 -18 -34 -20 c -25 -5 -59 -31 -70 -52 c -15 -29 -5 -25 40 16 l 40 36 l 0 -53 c 0 -33 9 -76 23 -110 c 23 -56 102 -183 171 -274 c 59 -79 159 -166 173 -151 c 13 13 -14 41 -40 44 c -26 3 -26 4 -12 32 c 32 62 15 342 -29 485 c -20 63 -20 69 2 60 c 9 -4 26 -8 37 -9 c 29 -2 67 -116 105 -314 c 26 -134 3 -266 -54 -320 c -62 -56 -129 -37 -229 64 c -89 91 -201 271 -242 390 c -21 60 -22 162 -2 201 c 77 147 345 157 737 26 c 185 -62 310 -143 310 -201 c -1 -61 -34 -75 -191 -76 c -70 -1 -131 -4 -135 -9 c -16 -15 115 -113 441 -331 c 446 -297 633 -461 635 -557 c 0 -9 -11 -33 -25 -53 c -29 -43 -9 -52 24 -11 c 54 70 26 148 -95 267 c -102 101 -193 169 -449 341 c -115 77 -255 172 -310 211 c -54 39 -104 74 -109 78 c -20 13 5 21 89 28 c 93 7 129 25 153 74 c 57 116 -172 255 -570 346 l -97 22 l -46 83 c -52 92 -165 247 -228 313 c -64 67 -169 136 -121 80 z m 323 -686 c 39 -73 70 -452 37 -452 c -32 0 -196 252 -233 358 c -28 82 3 112 119 112 c 55 0 69 -3 77 -18 z m 244 -28 c 34 -9 66 -18 70 -21 c 5 -3 -9 -21 -30 -41 c -21 -21 -46 -48 -54 -62 l -16 -25 l -16 55 c -25 88 -30 110 -22 110 c 4 0 35 -7 68 -16 z" stroke-linecap="round" />
</g>
		<g transform="matrix(0.13 0 0 -0.13 102.76 102.76)"  >
<path style="stroke: none; stroke-width: 1; stroke-dasharray: none; stroke-linecap: butt; stroke-dashoffset: 0; stroke-linejoin: miter; stroke-miterlimit: 4; fill: rgb(0,0,0); fill-rule: nonzero; opacity: 1;"  transform=" translate(-2270.69, -729.31)" d="M 2971 1413 c -5 -21 -17 -78 -26 -128 c -60 -334 -192 -592 -415 -815 c -215 -215 -484 -354 -791 -410 c -127 -23 -189 -38 -189 -47 c 0 -14 212 8 306 31 c 542 133 967 558 1100 1100 c 23 94 45 306 31 306 c -3 0 -11 -17 -16 -37 z" stroke-linecap="round" />
</g>
		<g transform="matrix(0.13 0 0 -0.13 -102.64 103.96)"  >
<path style="stroke: none; stroke-width: 1; stroke-dasharray: none; stroke-linecap: butt; stroke-dashoffset: 0; stroke-linejoin: miter; stroke-miterlimit: 4; fill: rgb(0,0,0); fill-rule: nonzero; opacity: 1;"  transform=" translate(-730.2, -720.33)" d="M 14 1345 c 17 -310 181 -659 427 -904 c 245 -246 591 -409 907 -428 c 160 -9 126 9 -87 47 c -566 102 -1007 497 -1165 1041 c -13 47 -34 136 -45 198 c -28 155 -44 175 -37 46 z" stroke-linecap="round" />
</g>
</g>
</g>
</svg>